<?xml version="1.0" encoding="UTF-8"?>
<svg id="Capa_2" data-name="Capa 2" xmlns="http://www.w3.org/2000/svg" viewBox="0 0 702.02 201.81">
  <defs>
    <style>
      .cls-1 {
        fill: #a678ff;
      }
    </style>
  </defs>
  <g id="Capa_1-2" data-name="Capa 1">
    <g>
      <polygon class="cls-1" points="97.97 167.74 59.03 167.74 59.03 28.87 86.86 28.87 86.86 0 0 0 0 28.87 21.06 28.87 21.06 168.78 0 168.78 0 197.65 128.65 197.65 128.65 125.87 97.97 125.87 97.97 167.74"/>
      <polygon class="cls-1" points="166.35 66.58 216.55 66.58 216.55 94.4 200.16 94.4 200.16 169.82 216.55 169.82 216.55 197.65 149.97 197.65 149.97 169.82 166.35 169.82 166.35 66.58"/>
      <path class="cls-1" d="M186.52,41.61c7.45,0,13.04-1.99,16.77-5.98,3.73-3.99,5.59-8.93,5.59-14.82s-1.87-10.83-5.59-14.82c-3.73-3.99-9.32-5.98-16.77-5.98s-13.05,2-16.77,5.98c-3.73,3.99-5.59,8.93-5.59,14.82s1.86,10.84,5.59,14.82c3.73,3.99,9.32,5.98,16.77,5.98Z"/>
      <path class="cls-1" d="M521.78,94.4v-27.83h-50.19v21.47c-3.29-7.09-8.27-12.91-14.95-17.44-8.06-5.46-17.9-8.19-29.52-8.19s-22.89,2.99-32.25,8.97-16.69,14.13-21.98,24.45c-5.29,10.32-7.93,22.32-7.93,36.02s2.6,26.31,7.8,36.8c5.2,10.49,12.44,18.64,21.72,24.45,9.27,5.81,20.15,8.71,32.64,8.71s22.93-2.95,31.34-8.84c6.53-4.57,11.51-10.36,14.95-17.34v22.02h48.37v-27.83h-16.38v-75.42h16.38ZM459.37,152.92c-2.95,5.9-7.15,10.45-12.61,13.65-5.46,3.21-11.92,4.81-19.37,4.81s-13.7-1.6-19.24-4.81c-5.55-3.21-9.84-7.76-12.87-13.65-3.04-5.89-4.55-12.83-4.55-20.8s1.52-14.91,4.55-20.8c3.03-5.89,7.28-10.44,12.74-13.65,5.46-3.21,11.92-4.81,19.37-4.81s13.91,1.6,19.37,4.81c5.46,3.21,9.66,7.76,12.61,13.65,2.95,5.9,4.42,12.83,4.42,20.8s-1.48,14.91-4.42,20.8Z"/>
      <path class="cls-1" d="M685.64,169.82v-53.57c0-18.03-4.25-31.51-12.74-40.44-8.5-8.93-21.06-13.39-37.71-13.39-12.14,0-22.24,2.56-30.3,7.67-6.51,4.13-11.41,9.59-14.69,16.37v-19.89h-48.37v27.83h16.38v75.42h-16.38v27.83h69.44v-27.83h-19.24v-44.99c0-10.57,2.69-18.55,8.06-23.93,5.37-5.37,13.17-8.06,23.41-8.06s16.86,2.47,21.45,7.41c4.59,4.94,6.89,12.44,6.89,22.5v47.07h-19.24v27.83h69.44v-27.83h-16.38Z"/>
      <polygon class="cls-1" points="329.1 125.05 329.1 110.43 307.42 132.11 329.1 153.79 329.1 139.17 350.14 139.17 350.14 197.65 326.44 197.65 326.44 186.15 293.88 151.94 261.31 186.15 261.31 197.65 237.61 197.65 237.61 139.17 258.66 139.17 258.66 153.79 280.33 132.11 258.66 110.43 258.66 125.05 237.61 125.05 237.61 66.58 261.31 66.58 261.31 78.07 293.88 112.28 326.44 78.07 326.44 66.58 350.14 66.58 350.14 125.05 329.1 125.05"/>
    </g>
  </g>
</svg>