<svg xmlns="http://www.w3.org/2000/svg" viewBox="0 0 64 64">
  <!-- Dark brand background -->
  <rect width="64" height="64" rx="14" fill="#0f0d1a"/>
  <!-- LixanIsotipo.svg — viewBox 0 0 85.92 100.08
       Scale to fit 48×48 area centered in 64×64 canvas
       scale = 48/100.08 = 0.4796  →  w=41.23  h=48.04
       tx = (64-41.23)/2 = 11.39   ty = (64-48.04)/2 = 7.98 -->
  <g transform="translate(11.39, 7.98) scale(0.4796)">
    <polygon fill="#a678ff" points="69.85 44.65 69.85 33.49 53.3 50.04 69.85 66.59 69.85 55.43 85.92 55.43 85.92 100.08 67.82 100.08 67.82 91.31 42.96 65.18 18.09 91.31 18.09 100.08 0 100.08 0 55.43 16.07 55.43 16.07 66.59 32.62 50.04 16.07 33.49 16.07 44.65 0 44.65 0 0 18.09 0 18.09 8.78 42.96 34.9 67.82 8.78 67.82 0 85.92 0 85.92 44.65 69.85 44.65"/>
  </g>
</svg>
